HIERARCHY
ROOT Hips
{
	OFFSET 0.00000 0.00000 0.00000
	CHANNELS 6 Xposition Yposition Zposition Zrotation Yrotation Xrotation 
	JOINT LHipJoint
	{
		OFFSET 0 0 0
		CHANNELS 3 Zrotation Yrotation Xrotation
		JOINT LeftHip
		{
			OFFSET 1.64577 -1.42384 0.94276
			CHANNELS 3 Zrotation Yrotation Xrotation
			JOINT LeftKnee
			{
				OFFSET 2.11538 -5.81197 0.00000
				CHANNELS 3 Zrotation Yrotation Xrotation
				JOINT LeftAnkle
				{
					OFFSET 2.36541 -6.49893 0.00000
					CHANNELS 3 Zrotation Yrotation Xrotation
					JOINT LeftToe
					{
						OFFSET 0.17759 -0.48793 1.73865
						CHANNELS 3 Zrotation Yrotation Xrotation
						End Site
						{
							OFFSET 0.00000 -0.00000 0.91205
						}
					}
				}
			}
		}
	}
	JOINT RHipJoint
	{
		OFFSET 0 0 0
		CHANNELS 3 Zrotation Yrotation Xrotation
		JOINT RightHip
		{
			OFFSET -1.43750 -1.42384 0.94276
			CHANNELS 3 Zrotation Yrotation Xrotation
			JOINT RightKnee
			{
				OFFSET -2.10480 -5.78291 0.00000
				CHANNELS 3 Zrotation Yrotation Xrotation
				JOINT RightAnkle
				{
					OFFSET -2.34880 -6.45329 0.00000
					CHANNELS 3 Zrotation Yrotation Xrotation
					JOINT RightToe
					{
						OFFSET -0.22842 -0.62757 1.80469
						CHANNELS 3 Zrotation Yrotation Xrotation
						End Site
						{
							OFFSET -0.00000 -0.00000 0.95886
						}
					}
				}
			}
		}
	}
	JOINT lowerback
	{
		OFFSET 0 0 0
		CHANNELS 3 Zrotation Yrotation Xrotation
		JOINT Chest
		{
			OFFSET 0.06217 1.93758 -0.49272
			CHANNELS 3 Zrotation Yrotation Xrotation
			JOINT Chest2
			{
				OFFSET -0.03114 2.03621 -0.05830
				CHANNELS 3 Zrotation Yrotation Xrotation
				JOINT lowerneck
				{
					OFFSET 0 0 0
					CHANNELS 3 Zrotation Yrotation Xrotation
					JOINT Neck
					{
						OFFSET 0.04421 1.41010 0.26562
						CHANNELS 3 Zrotation Yrotation Xrotation
						JOINT Head
						{
							OFFSET -0.13407 1.43847 0.06181
							CHANNELS 3 Zrotation Yrotation Xrotation
							End Site
							{
								OFFSET -0.04980 1.45844 -0.00689
							}
						}
					}
				}
				JOINT LeftCollar
				{
					OFFSET 0 0 0
					CHANNELS 3 Zrotation Yrotation Xrotation
					JOINT LeftShoulder
					{
						OFFSET 2.18382 1.47753 -0.35694
CHANNELS 3 Zrotation Xrotation Yrotation
						JOINT LeftElbow
						{
OFFSET 0 -5.054600 0.000000
CHANNELS 3 Zrotation Xrotation Yrotation
							JOINT LeftWrist
							{
OFFSET 0 -3.390130 0.000000
CHANNELS 3 Zrotation Xrotation Yrotation
								JOINT lhand
								{
									OFFSET 0 0 0
CHANNELS 3 Zrotation Xrotation Yrotation
									JOINT LFingers
									{
OFFSET 0 -0.572420 -0.000000
CHANNELS 3 Zrotation Xrotation Yrotation
										End Site
										{
OFFSET 0 -0.461500 -0.000000
										}
									}
								}
								JOINT LThumb
								{
OFFSET 0 0.000000 0.000000
CHANNELS 3 Zrotation Xrotation Yrotation
									End Site
									{
OFFSET 0 -0.468550 0.468550
									}
								}
							}
						}
					}
				}
				JOINT RightCollar
				{
					OFFSET 0 0 0
					CHANNELS 3 Zrotation Yrotation Xrotation
					JOINT RightShoulder
					{
						OFFSET -2.06033 1.72839 -0.47437
CHANNELS 3 Zrotation Xrotation Yrotation
						JOINT RightElbow
						{
OFFSET 0 -5.070100 0.000000
CHANNELS 3 Zrotation Xrotation Yrotation
							JOINT RightWrist
							{
OFFSET 0 -3.149570 -0.000000
CHANNELS 3 Zrotation Xrotation Yrotation
								JOINT rhand
								{
									OFFSET 0 0 0
CHANNELS 3 Zrotation Xrotation Yrotation
									JOINT RFingers
									{
OFFSET 0 -0.718190 -0.000000
CHANNELS 3 Zrotation Xrotation Yrotation
										End Site
										{
OFFSET 0 -0.579020 -0.000000
										}
									}
								}
								JOINT RThumb
								{
OFFSET 0 0.000000 0.000000
CHANNELS 3 Zrotation Xrotation Yrotation
									End Site
									{
OFFSET 0 -0.587860 0.587860
									}
								}
							}
						}
					}
				}
			}
		}
	}
}
MOTION
Frames: 11
Frame Time: 0.008333333333333333
7.427413 15.416002 -2.395093 4.886966 -42.867885 2.944046 0.000000 0.000000 0.000000 -16.621463 -13.914064 -4.588491 1.435918 7.576058 21.433841 0.695758 9.836473 -22.249648 1.118151 -6.707776 -18.856049 0.000000 0.000000 0.000000 5.936611 14.273651 -20.454249 -1.932407 -8.723572 24.934546 -0.879527 -20.220507 -34.264471 -0.054626 1.428705 -3.930551 3.724905 0.857729 20.177912 5.527769 1.007899 14.147360 3.656467 0.253965 4.133061 0.005619 -8.531663 -8.097614 13.283067 -11.596198 -2.682112 3.846675 -5.675282 1.430976 0.000000 0.000000 0.000000 12.475952 -12.067199 -68.098826 99.462787 -59.614372 68.181988 14.649862 -11.881735 -39.904108 0.000000 0.000000 0.000000 -7.125000 0.000000 0.000000 -29.821077 68.641112 17.482876 0.000000 0.000000 0.000000 -24.982186 -26.073393 38.359097 -49.946124 -52.932310 -26.142160 -38.401720 -61.165155 24.934020 0.000000 0.000000 0.000000 7.125000 0.000000 0.000000 -10.680993 60.341152 4.023428
7.295871 15.429282 -2.481661 4.777505 -42.258338 3.109254 0.000000 0.000000 0.000000 -16.265963 -14.609087 -4.703825 1.485770 7.700628 21.808636 0.630646 10.813788 -22.575556 0.872378 -5.942661 -16.621779 0.000000 0.000000 0.000000 6.733815 12.882923 -21.007522 -1.995035 -8.855391 25.344204 -0.634483 -20.328163 -32.948754 -0.117575 2.195406 -6.046657 4.158108 0.645091 20.235510 5.637025 0.807922 14.103951 3.562746 0.180195 4.076596 0.293972 -8.527590 -8.143914 13.101692 -11.594997 -2.831196 3.733595 -5.685581 1.355064 0.000000 0.000000 0.000000 10.845145 -16.891656 -70.605528 91.988350 -59.938552 61.720867 14.522441 -12.576561 -40.219353 0.000000 0.000000 0.000000 -7.125000 0.000000 0.000000 -30.460477 68.861043 18.030459 0.000000 0.000000 0.000000 -26.536103 -28.324227 35.486764 -45.150459 -50.799295 -22.367544 -37.666386 -60.895834 25.040272 0.000000 0.000000 0.000000 7.125000 0.000000 0.000000 -9.732386 60.264795 3.645032
7.168427 15.443945 -2.567350 4.788076 -41.607866 3.209187 0.000000 0.000000 0.000000 -16.080545 -15.096992 -5.007725 1.545788 7.847467 22.252013 0.547597 11.931818 -22.943724 0.648662 -5.139134 -14.308636 0.000000 0.000000 0.000000 7.389716 11.924803 -21.428423 -2.058932 -8.987438 25.756311 -0.543465 -20.365970 -32.437873 -0.155039 2.535227 -6.987404 4.495802 0.477159 20.253536 5.736776 0.650639 14.067797 3.506221 0.122378 4.042644 0.364221 -8.573492 -8.181161 13.149301 -11.650902 -2.955191 3.735027 -5.718959 1.323336 0.000000 0.000000 0.000000 9.002837 -21.693556 -73.534213 84.125599 -59.823049 54.916824 14.543460 -13.662670 -40.476262 0.000000 0.000000 0.000000 -7.125000 0.000000 0.000000 -30.851462 69.078273 18.424527 0.000000 0.000000 0.000000 -28.241483 -30.500369 32.384275 -40.619031 -48.392451 -18.913265 -36.946091 -60.195511 25.004217 0.000000 0.000000 0.000000 7.125000 0.000000 0.000000 -8.823662 60.030862 3.252605
7.045132 15.458166 -2.650646 4.936845 -40.926194 3.224564 0.000000 0.000000 0.000000 -16.095185 -15.355627 -5.487541 1.614809 8.012473 22.752252 0.447328 13.158888 -23.356647 0.467830 -4.376306 -12.139562 0.000000 0.000000 0.000000 7.882196 11.343856 -21.721304 -2.123476 -9.118378 26.166579 -0.556196 -20.404567 -32.562637 -0.152633 2.516689 -6.935922 4.730165 0.358127 20.228208 5.826552 0.539536 14.038243 3.490019 0.082084 4.032545 0.230382 -8.670029 -8.208455 13.381024 -11.764852 -3.047272 3.832517 -5.775849 1.333575 0.000000 0.000000 0.000000 6.897849 -26.396629 -76.947579 76.195855 -59.225666 48.079114 14.705764 -15.119765 -40.686737 0.000000 0.000000 0.000000 -7.125000 0.000000 0.000000 -31.017226 69.301794 18.681763 0.000000 0.000000 0.000000 -30.111264 -32.546593 28.975331 -36.433932 -45.775907 -15.843645 -36.146326 -58.962647 25.061733 0.000000 0.000000 0.000000 7.125000 0.000000 0.000000 -7.814668 59.884845 2.849851
6.926183 15.470865 -2.730129 5.197453 -40.214400 3.154564 0.000000 0.000000 0.000000 -16.304609 -15.389095 -6.114193 1.693210 8.195191 23.308604 0.339955 14.364719 -23.777437 0.341593 -3.749612 -10.373997 0.000000 0.000000 0.000000 8.237303 10.986358 -21.916743 -2.189693 -9.250263 26.581615 -0.650502 -20.395122 -33.126304 -0.118271 2.213059 -6.094880 4.865224 0.269009 20.182599 5.918157 0.451286 14.015422 3.527994 0.046740 4.036621 -0.062463 -8.796111 -8.230796 13.710977 -11.909749 -3.113249 3.990493 -5.844180 1.373826 0.000000 0.000000 0.000000 4.465337 -30.909143 -80.836478 68.536103 -58.151733 41.530399 14.930565 -16.814034 -40.872482 0.000000 0.000000 0.000000 -7.125000 0.000000 0.000000 -31.077361 69.525093 18.871712 0.000000 0.000000 0.000000 -32.135675 -34.454804 25.238632 -32.641768 -43.028699 -13.185218 -35.178585 -57.202257 25.404805 0.000000 0.000000 0.000000 7.125000 0.000000 0.000000 -6.559538 60.019537 2.409530
6.811401 15.482027 -2.805022 5.517558 -39.481234 3.028773 0.000000 0.000000 0.000000 -16.670732 -15.232332 -6.861594 1.782381 8.396912 23.926509 0.250156 15.322459 -24.138502 0.264547 -3.306598 -9.133816 0.000000 0.000000 0.000000 8.503384 10.711973 -22.062485 -2.259490 -9.386727 27.012715 -0.805082 -20.286784 -33.919788 -0.074017 1.749050 -4.812653 4.922746 0.194968 20.131738 6.020477 0.370446 13.996509 3.620066 0.009402 4.045485 -0.430720 -8.931432 -8.234211 14.050596 -12.058691 -3.190859 4.166851 -5.915027 1.414777 0.000000 0.000000 0.000000 1.654780 -35.152771 -85.198969 61.399464 -56.649356 35.512409 15.224709 -18.522676 -41.051020 0.000000 0.000000 0.000000 -7.125000 0.000000 0.000000 -31.052149 69.765262 19.017538 0.000000 0.000000 0.000000 -34.278730 -36.215958 21.227752 -29.261065 -40.237676 -10.934057 -34.098037 -55.368608 25.740453 0.000000 0.000000 0.000000 7.125000 0.000000 0.000000 -5.163905 60.115280 1.907195
6.700639 15.491703 -2.875226 5.840747 -38.749191 2.896807 0.000000 0.000000 0.000000 -17.140975 -14.938619 -7.715692 1.882355 8.616412 24.602768 0.204195 15.804441 -24.336447 0.228218 -3.074804 -8.487117 0.000000 0.000000 0.000000 8.732835 10.428588 -22.217519 -2.334643 -9.530789 27.470266 -0.990547 -20.074605 -34.751750 -0.038765 1.267878 -3.486182 4.930683 0.129613 20.085039 6.136254 0.293971 13.975174 3.754013 -0.030065 4.048720 -0.773342 -9.059827 -8.218154 14.316560 -12.193063 -3.314407 4.316436 -5.982703 1.429139 0.000000 0.000000 0.000000 -1.559405 -39.058136 -90.015948 54.913740 -54.787308 30.147229 15.595917 -20.036966 -41.229247 0.000000 0.000000 0.000000 -7.125000 0.000000 0.000000 -30.943423 70.030853 19.124961 0.000000 0.000000 0.000000 -36.486075 -37.827330 17.012956 -26.298975 -37.498445 -9.070648 -33.009103 -53.536398 25.915055 0.000000 0.000000 0.000000 7.125000 0.000000 0.000000 -3.795001 60.029129 1.393023
6.593910 15.499715 -2.940466 6.153665 -38.049058 2.772024 0.000000 0.000000 0.000000 -17.707732 -14.569668 -8.650396 1.992966 8.851174 25.331008 0.210001 15.684559 -24.235562 0.236893 -3.132059 -8.646550 0.000000 0.000000 0.000000 8.940867 10.096981 -22.410740 -2.415653 -9.682914 27.955908 -1.175217 -19.797153 -35.485353 -0.018651 0.880293 -2.419551 4.908051 0.065569 20.054996 6.243591 0.216389 13.949559 3.896076 -0.072074 4.038225 -1.025137 -9.166899 -8.190133 14.471831 -12.297145 -3.493452 4.414801 -6.040962 1.405246 0.000000 0.000000 0.000000 -5.132916 -42.542997 -95.217917 49.150754 -52.639878 25.499518 16.001510 -21.219897 -41.412168 0.000000 0.000000 0.000000 -7.125000 0.000000 0.000000 -30.807696 70.312542 19.223274 0.000000 0.000000 0.000000 -38.671711 -39.282537 12.714368 -23.756905 -34.903368 -7.568231 -32.116352 -51.653374 25.821932 0.000000 0.000000 0.000000 7.125000 0.000000 0.000000 -2.743336 59.699163 0.985198
6.491297 15.505464 -3.000430 6.486322 -37.410651 2.627646 0.000000 0.000000 0.000000 -18.400991 -14.206567 -9.609610 2.112758 9.096683 26.098550 0.263849 14.968338 -23.821801 0.287586 -3.445949 -9.523104 0.000000 0.000000 0.000000 9.106486 9.710650 -22.639733 -2.501025 -9.839598 28.458852 -1.336831 -19.499320 -36.058271 -0.009569 0.630521 -1.732592 4.830450 0.012771 20.052005 6.331411 0.147385 13.923124 4.046655 -0.112912 4.012124 -1.183884 -9.250736 -8.150435 14.525444 -12.370351 -3.714901 4.464043 -6.088505 1.347178 0.000000 0.000000 0.000000 -9.001388 -45.567275 -100.728901 44.078067 -50.291089 21.532213 16.407673 -21.995744 -41.553100 0.000000 0.000000 0.000000 -7.125000 0.000000 0.000000 -30.598228 70.561508 19.248915 0.000000 0.000000 0.000000 -40.784350 -40.576548 8.432964 -21.584543 -32.498538 -6.363836 -31.456673 -49.642363 25.525210 0.000000 0.000000 0.000000 7.125000 0.000000 0.000000 -2.040245 59.207758 0.708963
6.392614 15.508600 -3.055362 6.794926 -36.854933 2.492014 0.000000 0.000000 0.000000 -19.170483 -13.913942 -10.556940 2.239746 9.347936 26.890396 0.351660 13.786800 -23.203003 0.372715 -3.916140 -10.841477 0.000000 0.000000 0.000000 9.272029 9.330936 -22.883188 -2.587476 -9.995039 28.960887 -1.463697 -19.254563 -36.491536 -0.006791 0.531523 -1.460489 4.729537 -0.028477 20.073567 6.402415 0.091595 13.894223 4.189967 -0.148249 3.969866 -1.320330 -9.307706 -8.091306 14.549110 -12.409594 -3.929465 4.501958 -6.119803 1.281126 0.000000 0.000000 0.000000 -13.031123 -48.109732 -106.391457 39.647908 -47.836715 18.184983 16.840409 -22.308949 -41.553974 0.000000 0.000000 0.000000 -7.125000 0.000000 0.000000 -30.105551 70.706430 19.014933 0.000000 0.000000 0.000000 -42.755489 -41.735378 4.215496 -19.712526 -30.287561 -5.388946 -30.925099 -47.551957 25.089020 0.000000 0.000000 0.000000 7.125000 0.000000 0.000000 -1.538028 58.598576 0.512549
6.297374 15.509322 -3.105237 7.018393 -36.405070 2.408638 0.000000 0.000000 0.000000 -19.943788 -13.727408 -11.474709 2.372503 9.601566 27.696423 0.452450 12.367496 -22.533238 0.482792 -4.450172 -12.347609 0.000000 0.000000 0.000000 9.495414 9.029044 -23.114809 -2.670548 -10.141449 29.436171 -1.567183 -19.074325 -36.860144 -0.006452 0.516666 -1.419851 4.675698 -0.060992 20.099099 6.443129 0.053665 13.862305 4.270860 -0.170201 3.922162 -1.400336 -9.337451 -8.001392 14.547983 -12.418183 -4.122514 4.524182 -6.136469 1.207852 0.000000 0.000000 0.000000 -17.004255 -50.159297 -111.989190 35.860418 -45.392815 15.430991 17.384063 -22.184470 -41.329214 0.000000 0.000000 0.000000 -7.125000 0.000000 0.000000 -29.076943 70.703674 18.328558 0.000000 0.000000 0.000000 -44.491123 -42.797763 0.022663 -18.082185 -28.255329 -4.591653 -30.375724 -45.453645 24.524577 0.000000 0.000000 0.000000 7.125000 0.000000 0.000000 -1.060040 57.848733 0.335201
